<svg xmlns="http://www.w3.org/2000/svg" xmlns:xlink="http://www.w3.org/1999/xlink" width="750" zoomAndPan="magnify" viewBox="0 0 562.5 412.499988" height="550" preserveAspectRatio="xMidYMid meet" version="1.0"><defs><clipPath id="id1"><path d="M 279 24.988281 L 350 24.988281 L 350 95 L 279 95 Z M 279 24.988281 " clip-rule="nonzero"/></clipPath></defs><path fill="#619768" d="M 276.285156 246.777344 C 277.148438 147.039062 309.800781 69.085938 309.800781 69.085938 C 310.179688 68.179688 311.21875 67.753906 312.125 68.132812 C 313.027344 68.511719 313.457031 69.550781 313.078125 70.453125 C 313.078125 70.453125 288.011719 130.308594 281.398438 212.085938 C 303.085938 163.160156 359.269531 155.265625 359.269531 155.265625 C 360.242188 155.132812 361.144531 155.804688 361.277344 156.777344 C 361.414062 157.746094 360.738281 158.644531 359.765625 158.78125 C 359.765625 158.78125 297.800781 167.421875 280.820312 223.867188 C 280.761719 224.0625 280.667969 224.242188 280.558594 224.398438 C 279.132812 249.878906 279.621094 277.222656 283.230469 305.351562 C 283.347656 306.324219 282.664062 307.210938 281.695312 307.332031 C 280.71875 307.457031 279.832031 306.773438 279.707031 305.800781 C 278.136719 293.5625 277.152344 281.464844 276.65625 269.589844 C 276.644531 269.527344 276.632812 269.460938 276.628906 269.394531 C 269.824219 193.667969 199.941406 146.347656 199.941406 146.347656 C 199.125 145.796875 198.917969 144.695312 199.464844 143.882812 C 200.011719 143.074219 201.117188 142.859375 201.929688 143.410156 C 201.929688 143.410156 259.671875 182.578125 276.285156 246.777344 " fill-opacity="1" fill-rule="evenodd"/><path fill="#f0b732" d="M 374.253906 113.945312 C 355.121094 113.945312 339.582031 129.46875 339.582031 148.582031 C 339.582031 167.699219 355.121094 183.222656 374.253906 183.222656 C 393.390625 183.222656 408.929688 167.699219 408.929688 148.582031 C 408.929688 129.46875 393.390625 113.945312 374.253906 113.945312 " fill-opacity="1" fill-rule="evenodd"/><path fill="#e0a825" d="M 374.253906 117.699219 C 391.320312 117.699219 405.171875 131.535156 405.171875 148.582031 C 405.171875 165.625 391.320312 179.460938 374.253906 179.460938 C 357.191406 179.460938 343.339844 165.625 343.339844 148.582031 C 343.339844 131.535156 357.191406 117.699219 374.253906 117.699219 Z M 374.253906 119.109375 C 357.972656 119.109375 344.75 132.316406 344.75 148.582031 C 344.75 164.851562 357.972656 178.058594 374.253906 178.058594 C 390.542969 178.058594 403.761719 164.851562 403.761719 148.582031 C 403.761719 132.316406 390.542969 119.109375 374.253906 119.109375 " fill-opacity="1" fill-rule="evenodd"/><path fill="#e0a825" d="M 371.992188 169.917969 L 371.992188 165.683594 C 369.871094 165.414062 368.140625 164.9375 366.8125 164.253906 C 365.488281 163.570312 364.335938 162.46875 363.371094 160.945312 C 362.40625 159.421875 361.839844 157.566406 361.683594 155.363281 L 365.953125 154.5625 C 366.28125 156.839844 366.863281 158.511719 367.695312 159.582031 C 368.894531 161.089844 370.320312 161.929688 371.992188 162.097656 L 371.992188 148.609375 C 370.242188 148.277344 368.460938 147.601562 366.636719 146.582031 C 365.285156 145.824219 364.246094 144.78125 363.515625 143.445312 C 362.785156 142.113281 362.417969 140.597656 362.417969 138.90625 C 362.417969 135.890625 363.488281 133.449219 365.621094 131.578125 C 367.054688 130.320312 369.175781 129.554688 371.992188 129.273438 L 371.992188 127.246094 L 374.488281 127.246094 L 374.488281 129.273438 C 376.953125 129.507812 378.914062 130.230469 380.355469 131.4375 C 382.214844 132.976562 383.328125 135.085938 383.707031 137.773438 L 379.320312 138.433594 C 379.070312 136.765625 378.542969 135.492188 377.753906 134.605469 C 376.960938 133.71875 375.871094 133.132812 374.488281 132.851562 L 374.488281 145.074219 C 376.625 145.609375 378.039062 146.023438 378.734375 146.324219 C 380.050781 146.902344 381.128906 147.605469 381.960938 148.441406 C 382.792969 149.273438 383.433594 150.261719 383.882812 151.410156 C 384.332031 152.554688 384.550781 153.792969 384.550781 155.128906 C 384.550781 158.0625 383.617188 160.515625 381.746094 162.476562 C 379.878906 164.441406 377.457031 165.492188 374.488281 165.632812 L 374.488281 169.917969 Z M 371.992188 132.804688 C 370.339844 133.054688 369.039062 133.714844 368.085938 134.78125 C 367.136719 135.851562 366.660156 137.113281 366.660156 138.570312 C 366.660156 140.015625 367.0625 141.226562 367.878906 142.199219 C 368.6875 143.175781 370.054688 143.949219 371.992188 144.53125 Z M 374.488281 162.097656 C 376.136719 161.894531 377.5 161.179688 378.578125 159.957031 C 379.652344 158.734375 380.195312 157.21875 380.195312 155.414062 C 380.195312 153.871094 379.8125 152.640625 379.046875 151.703125 C 378.285156 150.769531 376.765625 149.933594 374.488281 149.195312 L 374.488281 162.097656 " fill-opacity="1" fill-rule="nonzero"/><path fill="#eeeed4" d="M 398.664062 127.730469 L 396.988281 132.257812 L 392.460938 133.925781 L 396.988281 135.601562 L 398.664062 140.125 L 400.339844 135.601562 L 404.867188 133.925781 L 400.339844 132.257812 L 398.664062 127.730469 " fill-opacity="1" fill-rule="evenodd"/><path fill="#68a971" d="M 262.015625 283.558594 C 269.246094 282.859375 272.5 279.640625 278.144531 272.402344 C 283.59375 265.410156 291.742188 258.238281 293.160156 250.441406 C 295.800781 235.921875 283.652344 226.3125 271.8125 217.386719 C 268.628906 214.988281 274.90625 194.152344 274.65625 189.390625 C 274.332031 183.214844 263.933594 174.507812 255.460938 168.824219 C 246.683594 162.9375 242.308594 139.304688 222.003906 154.0625 C 217.382812 157.417969 219.539062 171.40625 217.285156 174.445312 C 211.253906 182.566406 210.542969 199.019531 212.339844 203.308594 C 215.742188 211.429688 215.847656 214.121094 223.21875 219.679688 C 223.539062 219.925781 225.679688 220.863281 225.148438 221.449219 C 213.910156 233.738281 199.941406 247.191406 209.304688 262.566406 C 214.414062 270.957031 230.253906 286.613281 262.015625 283.558594 " fill-opacity="1" fill-rule="evenodd"/><path fill="#eeeed4" d="M 237.097656 185.253906 L 232.871094 166.222656 C 232.832031 166.054688 233.011719 165.875 233.273438 165.824219 C 233.53125 165.777344 233.769531 165.871094 233.808594 166.042969 L 237.976562 183.882812 L 244.273438 174.066406 C 244.324219 173.984375 244.460938 173.933594 244.582031 173.953125 C 244.703125 173.976562 244.757812 174.066406 244.707031 174.148438 L 238.277344 185.167969 L 245.492188 216.074219 L 256.746094 204.09375 C 256.820312 204.015625 256.96875 203.976562 257.074219 204.015625 C 257.183594 204.054688 257.21875 204.148438 257.144531 204.226562 L 245.730469 217.101562 L 253.769531 251.515625 L 266.660156 239.039062 C 266.738281 238.960938 266.886719 238.929688 266.992188 238.972656 C 267.097656 239.015625 267.117188 239.113281 267.039062 239.183594 L 253.996094 252.492188 L 260.578125 280.6875 C 260.667969 281.078125 260.25 281.492188 259.644531 281.613281 C 259.039062 281.730469 258.472656 281.503906 258.382812 281.109375 L 255.910156 269.96875 L 237.476562 261.484375 C 237.371094 261.441406 237.347656 261.347656 237.425781 261.265625 C 237.503906 261.1875 237.65625 261.160156 237.757812 261.203125 L 255.691406 268.996094 L 248.808594 238.007812 L 234.046875 231.433594 C 233.945312 231.390625 233.929688 231.289062 234.007812 231.21875 C 234.089844 231.144531 234.238281 231.117188 234.34375 231.15625 L 248.589844 237.011719 L 240.324219 199.789062 L 225.234375 194.917969 C 225.125 194.882812 225.085938 194.789062 225.15625 194.707031 C 225.21875 194.628906 225.367188 194.59375 225.480469 194.625 L 240.125 198.890625 L 237.1875 185.648438 C 237.042969 185.5625 236.996094 185.414062 237.089844 185.265625 L 237.097656 185.253906 " fill-opacity="1" fill-rule="evenodd"/><path fill="#68a971" d="M 278.703125 292.550781 C 285.089844 298.898438 304.640625 290.367188 309.15625 282.28125 C 312.890625 275.597656 312.019531 267.171875 315.832031 260.347656 C 320.34375 252.277344 334.253906 252.378906 340.921875 245.859375 C 349.277344 237.703125 345.605469 227.617188 348.820312 218.113281 C 350.804688 212.25 360.164062 211.65625 362.839844 205.964844 C 365.066406 201.226562 366.042969 178.761719 351.246094 165.652344 C 347.761719 162.570312 333.960938 160.492188 331.359375 168.183594 C 330.085938 171.960938 329.003906 176.703125 324.085938 179.085938 C 315.933594 183.03125 305.472656 189.214844 303.363281 197.78125 C 302.28125 202.175781 305.878906 207.457031 304.617188 211.199219 C 302.214844 218.292969 287.5 219.46875 281.480469 223.777344 C 271.253906 231.105469 281.492188 237.203125 270.828125 244.195312 C 262.777344 249.480469 272.3125 286.203125 278.703125 292.550781 " fill-opacity="1" fill-rule="evenodd"/><path fill="#eeeed4" d="M 328.304688 201.804688 C 339.65625 185.210938 348.585938 173.078125 348.585938 173.078125 C 348.695312 172.925781 348.980469 172.921875 349.214844 173.070312 C 349.449219 173.214844 349.550781 173.460938 349.441406 173.613281 C 349.441406 173.613281 345.078125 179.671875 338.59375 189.078125 L 352.992188 184.457031 C 353.097656 184.425781 353.246094 184.476562 353.324219 184.578125 C 353.402344 184.679688 353.382812 184.785156 353.28125 184.824219 L 337.65625 190.445312 C 331.527344 199.371094 323.707031 211.007812 315.921875 223.285156 L 332.292969 218.589844 C 332.398438 218.558594 332.546875 218.613281 332.625 218.714844 C 332.699219 218.816406 332.675781 218.921875 332.574219 218.953125 L 315.136719 224.53125 C 309.523438 233.429688 303.957031 242.609375 299.105469 251.304688 C 297.898438 253.464844 296.734375 255.59375 295.625 257.683594 L 312.984375 251.3125 C 313.085938 251.273438 313.234375 251.324219 313.316406 251.425781 C 313.398438 251.523438 313.386719 251.632812 313.289062 251.667969 L 294.925781 259.003906 C 288.761719 270.742188 284.398438 281.011719 283.695312 287.617188 C 283.644531 288.074219 283.109375 288.28125 282.503906 288.082031 C 281.898438 287.882812 281.445312 287.351562 281.496094 286.898438 C 281.960938 282.878906 283.785156 277.515625 286.550781 271.296875 L 275.617188 252.472656 C 275.550781 252.371094 275.59375 252.269531 275.710938 252.25 C 275.824219 252.234375 275.96875 252.300781 276.027344 252.40625 L 286.996094 270.308594 C 289.738281 264.273438 293.324219 257.476562 297.394531 250.359375 C 299.113281 247.351562 300.921875 244.285156 302.785156 241.199219 L 296.644531 224.121094 C 296.609375 224.015625 296.679688 223.929688 296.796875 223.929688 C 296.921875 223.9375 297.058594 224.023438 297.097656 224.128906 L 303.40625 240.164062 C 306.632812 234.839844 310.023438 229.453125 313.433594 224.164062 C 313.445312 224.097656 313.484375 224.039062 313.542969 223.996094 C 318.339844 216.554688 323.179688 209.320312 327.664062 202.746094 C 327.644531 202.710938 327.625 202.679688 327.613281 202.648438 L 322.109375 187.988281 C 322.066406 187.882812 322.136719 187.800781 322.253906 187.800781 C 322.378906 187.800781 322.515625 187.882812 322.554688 187.988281 L 328.304688 201.804688 " fill-opacity="1" fill-rule="evenodd"/><path fill="#ee4e2a" d="M 215.464844 277.550781 L 319.839844 277.550781 L 293.742188 384.6875 L 241.558594 384.6875 L 215.464844 277.550781 " fill-opacity="1" fill-rule="evenodd"/><path fill="#19344f" d="M 319.839844 276.417969 L 215.464844 276.417969 L 215.464844 300.585938 L 319.839844 300.585938 L 319.839844 276.417969 " fill-opacity="1" fill-rule="evenodd"/><g clip-path="url(#id1)"><path fill="#f0b732" d="M 314.46875 24.972656 C 295.328125 24.972656 279.792969 40.492188 279.792969 59.605469 C 279.792969 78.722656 295.328125 94.246094 314.46875 94.246094 C 333.605469 94.246094 349.140625 78.722656 349.140625 59.605469 C 349.140625 40.492188 333.605469 24.972656 314.46875 24.972656 " fill-opacity="1" fill-rule="evenodd"/></g><path fill="#e0a825" d="M 314.46875 28.726562 C 331.53125 28.726562 345.382812 42.5625 345.382812 59.605469 C 345.382812 76.652344 331.53125 90.492188 314.46875 90.492188 C 297.402344 90.492188 283.550781 76.652344 283.550781 59.605469 C 283.550781 42.5625 297.402344 28.726562 314.46875 28.726562 Z M 314.46875 30.132812 C 298.179688 30.132812 284.960938 43.339844 284.960938 59.605469 C 284.960938 75.875 298.179688 89.085938 314.46875 89.085938 C 330.753906 89.085938 343.972656 75.875 343.972656 59.605469 C 343.972656 43.339844 330.753906 30.132812 314.46875 30.132812 " fill-opacity="1" fill-rule="evenodd"/><path fill="#e0a825" d="M 312.203125 80.945312 L 312.203125 76.707031 C 310.078125 76.4375 308.351562 75.964844 307.027344 75.28125 C 305.699219 74.597656 304.550781 73.492188 303.582031 71.96875 C 302.617188 70.453125 302.058594 68.589844 301.902344 66.386719 L 306.167969 65.589844 C 306.496094 67.867188 307.078125 69.539062 307.910156 70.609375 C 309.105469 72.113281 310.535156 72.953125 312.203125 73.125 L 312.203125 59.632812 C 310.457031 59.300781 308.671875 58.628906 306.851562 57.605469 C 305.496094 56.855469 304.457031 55.808594 303.726562 54.472656 C 302.996094 53.136719 302.625 51.625 302.625 49.929688 C 302.625 46.914062 303.699219 44.472656 305.835938 42.601562 C 307.265625 41.351562 309.386719 40.582031 312.203125 40.300781 L 312.203125 38.273438 L 314.699219 38.273438 L 314.699219 40.300781 C 317.167969 40.535156 319.125 41.253906 320.570312 42.464844 C 322.425781 44 323.539062 46.113281 323.917969 48.796875 L 319.53125 49.457031 C 319.285156 47.796875 318.761719 46.519531 317.964844 45.632812 C 317.171875 44.746094 316.082031 44.160156 314.699219 43.878906 L 314.699219 56.097656 C 316.839844 56.632812 318.253906 57.046875 318.941406 57.347656 C 320.261719 57.925781 321.339844 58.636719 322.171875 59.46875 C 323.007812 60.300781 323.648438 61.285156 324.09375 62.4375 C 324.542969 63.582031 324.765625 64.820312 324.765625 66.152344 C 324.765625 69.089844 323.832031 71.539062 321.960938 73.503906 C 320.09375 75.464844 317.671875 76.519531 314.699219 76.660156 L 314.699219 80.945312 Z M 312.203125 43.832031 C 310.546875 44.082031 309.25 44.742188 308.296875 45.808594 C 307.351562 46.878906 306.875 48.136719 306.875 49.597656 C 306.875 51.042969 307.277344 52.25 308.085938 53.226562 C 308.894531 54.199219 310.265625 54.976562 312.203125 55.558594 Z M 314.699219 73.125 C 316.347656 72.921875 317.710938 72.207031 318.789062 70.980469 C 319.867188 69.757812 320.40625 68.246094 320.40625 66.4375 C 320.40625 64.898438 320.023438 63.664062 319.261719 62.726562 C 318.496094 61.792969 316.976562 60.960938 314.699219 60.21875 L 314.699219 73.125 " fill-opacity="1" fill-rule="nonzero"/><path fill="#eeeed4" d="M 305.828125 27.082031 L 304.152344 31.605469 L 299.621094 33.28125 L 304.152344 34.953125 L 305.828125 39.476562 L 307.503906 34.953125 L 312.03125 33.28125 L 307.503906 31.605469 L 305.828125 27.082031 " fill-opacity="1" fill-rule="evenodd"/><path fill="#f0b732" d="M 186.976562 98.640625 C 167.839844 98.640625 152.300781 114.164062 152.300781 133.277344 C 152.300781 152.394531 167.839844 167.917969 186.976562 167.917969 C 206.113281 167.917969 221.652344 152.394531 221.652344 133.277344 C 221.652344 114.164062 206.113281 98.640625 186.976562 98.640625 " fill-opacity="1" fill-rule="evenodd"/><path fill="#e0a825" d="M 186.976562 102.394531 C 204.042969 102.394531 217.894531 116.234375 217.894531 133.277344 C 217.894531 150.328125 204.042969 164.164062 186.976562 164.164062 C 169.917969 164.164062 156.058594 150.328125 156.058594 133.277344 C 156.058594 116.234375 169.917969 102.394531 186.976562 102.394531 Z M 186.976562 103.804688 C 170.691406 103.804688 157.46875 117.011719 157.46875 133.277344 C 157.46875 149.546875 170.691406 162.753906 186.976562 162.753906 C 203.261719 162.753906 216.484375 149.546875 216.484375 133.277344 C 216.484375 117.011719 203.261719 103.804688 186.976562 103.804688 " fill-opacity="1" fill-rule="evenodd"/><path fill="#e0a825" d="M 184.710938 154.617188 L 184.710938 150.378906 C 182.589844 150.109375 180.867188 149.632812 179.539062 148.949219 C 178.207031 148.265625 177.0625 147.164062 176.09375 145.644531 C 175.128906 144.121094 174.566406 142.261719 174.410156 140.0625 L 178.675781 139.261719 C 179.007812 141.535156 179.589844 143.207031 180.421875 144.277344 C 181.613281 145.785156 183.046875 146.625 184.710938 146.800781 L 184.710938 133.304688 C 182.96875 132.972656 181.183594 132.296875 179.359375 131.277344 C 178.007812 130.523438 176.964844 129.480469 176.234375 128.148438 C 175.503906 126.8125 175.140625 125.292969 175.140625 123.601562 C 175.140625 120.585938 176.207031 118.144531 178.347656 116.277344 C 179.773438 115.023438 181.894531 114.25 184.710938 113.96875 L 184.710938 111.941406 L 187.210938 111.941406 L 187.210938 113.96875 C 189.679688 114.203125 191.632812 114.925781 193.082031 116.132812 C 194.933594 117.671875 196.050781 119.785156 196.425781 122.46875 L 192.039062 123.128906 C 191.792969 121.464844 191.269531 120.1875 190.472656 119.300781 C 189.683594 118.414062 188.59375 117.828125 187.210938 117.546875 L 187.210938 129.773438 C 189.347656 130.304688 190.761719 130.71875 191.453125 131.019531 C 192.777344 131.601562 193.851562 132.308594 194.683594 133.136719 C 195.515625 133.96875 196.160156 134.960938 196.605469 136.105469 C 197.054688 137.25 197.277344 138.492188 197.277344 139.828125 C 197.277344 142.765625 196.34375 145.210938 194.472656 147.171875 C 192.601562 149.136719 190.179688 150.1875 187.210938 150.332031 L 187.210938 154.617188 Z M 184.710938 117.5 C 183.0625 117.75 181.761719 118.410156 180.808594 119.476562 C 179.859375 120.546875 179.382812 121.8125 179.382812 123.273438 C 179.382812 124.71875 179.789062 125.921875 180.597656 126.894531 C 181.40625 127.871094 182.777344 128.644531 184.710938 129.226562 Z M 187.210938 146.800781 C 188.859375 146.589844 190.222656 145.878906 191.300781 144.652344 C 192.378906 143.429688 192.914062 141.914062 192.914062 140.109375 C 192.914062 138.570312 192.535156 137.335938 191.773438 136.402344 C 191.011719 135.464844 189.488281 134.628906 187.210938 133.890625 L 187.210938 146.800781 " fill-opacity="1" fill-rule="nonzero"/><path fill="#eeeed4" d="M 162.308594 113.511719 L 160.632812 118.03125 L 156.101562 119.707031 L 160.632812 121.378906 L 162.308594 125.902344 L 163.980469 121.378906 L 168.511719 119.707031 L 163.980469 118.03125 L 162.308594 113.511719 " fill-opacity="1" fill-rule="evenodd"/><path fill="#fdb58e" d="M 427.460938 356.496094 C 427.460938 356.496094 425.890625 365.648438 425.464844 367.910156 C 425.328125 368.648438 425.050781 369.882812 424.917969 370.09375 C 423.972656 371.644531 424.054688 375.703125 424.054688 375.703125 L 433.113281 377.507812 L 435.730469 374.363281 C 435.730469 374.363281 435.328125 371.84375 435.535156 370.601562 C 435.964844 368.054688 438.285156 359.074219 438.285156 359.074219 L 427.460938 356.496094 " fill-opacity="1" fill-rule="evenodd"/><path fill="#fdb58e" d="M 489.300781 355.515625 C 489.300781 355.515625 492.257812 364.3125 492.960938 366.507812 C 493.1875 367.222656 493.527344 368.4375 493.511719 368.6875 C 493.414062 370.5 495.414062 374.035156 495.414062 374.035156 L 504.25 371.332031 L 505.058594 367.328125 C 505.058594 367.328125 503.507812 365.296875 503.105469 364.105469 C 502.269531 361.664062 500.050781 352.652344 500.050781 352.652344 L 489.300781 355.515625 " fill-opacity="1" fill-rule="evenodd"/><path fill="#19344f" d="M 435.480469 372.105469 C 434.890625 372.214844 432.605469 375.15625 429.03125 374.117188 C 425.867188 373.195312 425.582031 369.960938 424.839844 369.734375 C 423.160156 369.222656 420.382812 371.570312 414.664062 373.515625 C 411.769531 374.5 404.378906 374.007812 404.414062 377.402344 C 404.4375 380 429.242188 383.875 434.578125 383.703125 C 437.050781 383.621094 436.75 378.601562 436.445312 376.367188 C 436.1875 374.460938 436.398438 371.9375 435.480469 372.105469 " fill-opacity="1" fill-rule="evenodd"/><path fill="#19344f" d="M 503.765625 365.460938 C 503.296875 365.832031 502.679688 369.503906 499.046875 370.277344 C 495.824219 370.972656 494.035156 368.257812 493.269531 368.40625 C 491.546875 368.753906 490.214844 372.140625 486.109375 376.558594 C 484.027344 378.792969 477.289062 381.863281 478.925781 384.835938 C 480.183594 387.113281 503.859375 378.773438 508.480469 376.097656 C 510.617188 374.855469 507.972656 370.574219 506.640625 368.753906 C 505.511719 367.199219 504.496094 364.871094 503.765625 365.460938 " fill-opacity="1" fill-rule="evenodd"/><path fill="#619768" d="M 460.40625 214.757812 C 460.40625 214.757812 470.960938 210.492188 475.960938 217.265625 C 490.074219 236.355469 487.101562 296.863281 487.101562 296.863281 C 487.101562 296.863281 491.679688 307.296875 493 312.804688 C 495.457031 323.0625 501.84375 358.414062 501.84375 358.414062 L 491.058594 361.667969 L 470.496094 304.78125 L 447.960938 237.058594 C 447.960938 237.058594 441.242188 218.292969 460.40625 214.757812 " fill-opacity="1" fill-rule="evenodd"/><path fill="#68a971" d="M 461.3125 211.363281 C 461.3125 211.363281 477.640625 210.390625 479.046875 225.496094 C 480.402344 240.046875 452.234375 298.714844 452.234375 298.714844 C 452.234375 298.714844 452.253906 310.816406 450.921875 316.664062 C 448.449219 327.527344 437.382812 363.878906 437.382812 363.878906 L 426.328125 362.089844 L 436.214844 299.585938 L 442.441406 261.808594 L 446.566406 225.210938 C 446.566406 225.210938 445.480469 211.492188 461.3125 211.363281 " fill-opacity="1" fill-rule="evenodd"/><path fill="#fdb58e" d="M 391.347656 230.519531 L 391.652344 227.199219 L 397.046875 225.628906 L 402.046875 222.898438 L 403.9375 230.546875 L 395.785156 232.796875 L 392.296875 234.503906 L 392.269531 232.628906 L 391.347656 230.519531 " fill-opacity="1" fill-rule="evenodd"/><path fill="#eeeed4" d="M 445.582031 167.035156 C 445.582031 167.035156 454.53125 169.519531 453.152344 175.816406 C 451.773438 182.113281 440.59375 216.285156 440.59375 216.285156 C 440.59375 216.285156 439.390625 220.796875 433.699219 222.445312 C 428.875 223.84375 402.21875 231.296875 402.21875 231.296875 L 399.496094 223.734375 L 428.359375 211.492188 L 435.875 172.359375 C 435.875 172.359375 437.824219 166.996094 445.582031 167.035156 " fill-opacity="1" fill-rule="evenodd"/><path fill="#fdb58e" d="M 436.445312 170.210938 L 442.699219 163.597656 C 442.699219 163.597656 439.660156 162.109375 438.894531 160.699219 C 437.457031 158.046875 434.074219 147.679688 434.074219 147.679688 L 425.9375 152.238281 C 425.9375 152.238281 430.300781 158.546875 429.601562 164.511719 C 429.269531 167.34375 427.488281 173.113281 427.488281 173.113281 L 436.445312 170.210938 " fill-opacity="1" fill-rule="evenodd"/><path fill="#fdb58e" d="M 417.988281 140.53125 C 417.613281 142.546875 417.949219 145.980469 418.644531 148.464844 C 419.339844 150.949219 421.046875 153.941406 422.167969 155.4375 C 425.246094 159.546875 429.632812 160.421875 435.5 154.558594 C 436.398438 153.65625 435.71875 150.773438 436.015625 149.855469 C 437.230469 146.109375 434.542969 143.90625 432.863281 140.507812 C 431.476562 137.699219 431.195312 137.554688 427.9375 136.886719 C 425.164062 136.320312 423.335938 133.871094 420.878906 136.382812 C 420.25 137.023438 418.296875 138.855469 417.988281 140.53125 " fill-opacity="1" fill-rule="evenodd"/><path fill="#eeeed4" d="M 428.449219 168.265625 C 428.476562 167.925781 432.359375 168.71875 436.945312 167.316406 C 441.5625 165.902344 443.832031 162.808594 443.832031 162.808594 C 443.832031 162.808594 454.351562 163.054688 463.445312 180.539062 C 465.722656 184.902344 469.863281 205.386719 471.984375 208.265625 C 477.105469 215.21875 448.40625 227.65625 446.035156 222.121094 C 441.050781 210.492188 435.84375 208.25 431.738281 202.222656 C 426.976562 195.238281 425.59375 188.28125 425.71875 179.277344 C 425.789062 174.273438 428.449219 168.265625 428.449219 168.265625 " fill-opacity="1" fill-rule="evenodd"/><path fill="#fdb58e" d="M 464.917969 246.09375 L 465.363281 256.730469 L 463.226562 262.316406 C 463.226562 262.316406 463.230469 268.539062 463.683594 268.496094 C 464.425781 268.429688 465.019531 264.828125 465.019531 264.828125 L 466.335938 263.320312 C 466.335938 263.320312 466.4375 275.078125 467.453125 275.578125 C 468.46875 276.082031 472.449219 266.351562 472.449219 266.351562 L 472.199219 256.484375 L 472.644531 246.714844 L 464.917969 246.09375 " fill-opacity="1" fill-rule="evenodd"/><path fill="#eeeed4" d="M 439.511719 168.335938 C 439.511719 168.335938 447.390625 165 451.761719 172.058594 C 455.65625 178.335938 472.035156 208.023438 472.035156 208.023438 C 472.035156 208.023438 474.113281 212.167969 474.117188 214.582031 C 474.117188 217 472.648438 251.628906 472.648438 251.628906 L 464.71875 251.589844 L 461.011719 215.546875 L 434.480469 180.566406 C 434.480469 180.566406 432.484375 171.476562 439.511719 168.335938 " fill-opacity="1" fill-rule="evenodd"/><path fill="#ee4e2a" d="M 378.425781 225.945312 C 379.625 224.703125 381.195312 223.257812 382.867188 222.203125 C 385.894531 220.289062 389.191406 219.738281 391.738281 222.058594 C 393.375 223.554688 394.609375 225.890625 395.109375 228.722656 C 396.171875 234.738281 393.976562 243.152344 385.699219 249.375 C 384.898438 251.226562 383.414062 252.699219 381.558594 253.480469 C 376.761719 255.496094 370.484375 258.140625 365.6875 260.160156 C 363.777344 260.960938 361.625 260.972656 359.707031 260.191406 C 358.625 259.753906 357.667969 259.078125 356.890625 258.234375 C 351.414062 254.089844 338.902344 244.625 336.566406 242.855469 L 326.777344 238.738281 L 336.457031 231.078125 L 340.15625 237 L 340.160156 236.996094 L 350.832031 245.039062 C 350.832031 245.039062 348.515625 239.550781 347.027344 236.019531 C 346.246094 234.167969 346.589844 231.980469 348.015625 230.5625 C 350.554688 228.03125 355.457031 226.105469 359.132812 224.375 C 363.558594 222.285156 368.210938 220.246094 372.734375 220.152344 C 374.722656 220.109375 376.492188 221.421875 377.265625 223.25 C 377.859375 224.605469 378.425781 225.945312 378.425781 225.945312 Z M 385.9375 243.828125 C 389.789062 239.90625 391.351562 235.386719 391.328125 231.550781 C 391.304688 228.769531 390.484375 226.371094 389.015625 225.035156 C 388.457031 224.523438 387.785156 224.484375 387.105469 224.652344 C 386.410156 224.824219 385.707031 225.179688 385.023438 225.609375 C 382.996094 226.890625 381.140625 228.859375 380.144531 230.019531 L 385.726562 243.257812 C 385.804688 243.445312 385.875 243.636719 385.9375 243.828125 " fill-opacity="1" fill-rule="evenodd"/><path fill="#fdb58e" d="M 390.359375 227.644531 C 390.394531 226.84375 392.09375 227.914062 392.382812 228.363281 C 393.96875 230.828125 393.601562 232.90625 393.035156 233.421875 C 392.015625 234.351562 391.148438 235.078125 390.496094 233.761719 C 389.78125 232.320312 390.285156 229.242188 390.359375 227.644531 " fill-opacity="1" fill-rule="evenodd"/><path fill="#fdb58e" d="M 396.945312 225.875 L 393.300781 224.984375 C 393.300781 224.984375 391.066406 225.804688 390.976562 226.152344 C 390.90625 226.421875 393.769531 227.066406 393.769531 227.066406 L 395.945312 228.253906 L 396.945312 225.875 " fill-opacity="1" fill-rule="evenodd"/><path fill="#ffffff" d="M 460.917969 216.023438 L 444.160156 193.679688 C 444.09375 193.589844 444.113281 193.460938 444.203125 193.394531 C 444.289062 193.328125 444.417969 193.34375 444.484375 193.4375 L 461.273438 215.824219 C 461.296875 215.851562 461.3125 215.890625 461.316406 215.925781 L 463.847656 240.132812 C 463.859375 240.242188 463.773438 240.34375 463.667969 240.351562 C 463.558594 240.367188 463.457031 240.285156 463.445312 240.171875 L 460.917969 216.023438 " fill-opacity="1" fill-rule="evenodd"/><path fill="#e24927" d="M 364.40625 235.039062 C 364.757812 234 365.851562 233.25 367.082031 233.304688 C 368.3125 233.359375 369.332031 234.214844 369.585938 235.28125 C 370.664062 235.0625 371.867188 235.636719 372.433594 236.726562 C 373 237.8125 372.765625 239.125 371.972656 239.882812 C 372.699219 240.703125 372.804688 242.03125 372.144531 243.0625 C 371.476562 244.101562 370.230469 244.558594 369.175781 244.246094 C 368.824219 245.285156 367.730469 246.042969 366.5 245.980469 C 365.269531 245.925781 364.25 245.078125 363.996094 244.011719 C 362.917969 244.222656 361.710938 243.65625 361.148438 242.558594 C 360.585938 241.472656 360.808594 240.160156 361.609375 239.40625 C 360.882812 238.582031 360.773438 237.253906 361.4375 236.222656 C 362.105469 235.1875 363.351562 234.730469 364.40625 235.039062 " fill-opacity="1" fill-rule="evenodd"/><path fill="#68a971" d="M 428.34375 169.902344 C 428.34375 169.902344 432.472656 170.179688 436.8125 168.882812 C 439.816406 167.984375 442.902344 166.335938 444.894531 163.429688 C 445.3125 162.824219 445.152344 162.003906 444.554688 161.585938 C 443.949219 161.171875 443.121094 161.328125 442.707031 161.929688 C 441.074219 164.308594 438.511719 165.609375 436.054688 166.34375 C 432.191406 167.496094 428.519531 167.257812 428.519531 167.257812 C 427.789062 167.210938 427.15625 167.765625 427.105469 168.492188 C 427.058594 169.222656 427.613281 169.855469 428.34375 169.902344 " fill-opacity="1" fill-rule="evenodd"/><path fill="#19344f" d="M 425.304688 134.25 C 420.402344 135.378906 414.050781 140.308594 416.375 143.25 C 417.394531 144.546875 418.746094 144.886719 420.390625 144.820312 C 421.375 144.777344 423.277344 144.769531 424.28125 145.15625 C 426.726562 146.097656 427.679688 148.902344 429.878906 149.085938 C 431.449219 149.214844 432.511719 148.25 433.40625 149.835938 C 434.921875 152.527344 430.65625 152.191406 431.777344 155.761719 C 434.273438 163.667969 442.03125 167.445312 446.699219 168.984375 C 469.140625 176.375 477.699219 141.324219 457 144.90625 C 451.097656 145.925781 446.648438 146.597656 443.710938 146.507812 C 435.828125 146.273438 438.480469 141.953125 433.234375 137.117188 C 431.570312 135.585938 428.621094 133.488281 425.304688 134.25 " fill-opacity="1" fill-rule="evenodd"/><path fill="#fdb58e" d="M 89.941406 360.800781 C 89.941406 360.800781 89.753906 369.539062 89.746094 371.664062 C 89.742188 372.296875 89.777344 373.332031 89.875 373.546875 C 90.574219 375.125 89.753906 378.941406 89.753906 378.941406 L 80.859375 379.4375 L 78.777344 376.140625 C 78.777344 376.140625 79.601562 373.902344 79.65625 372.726562 C 79.761719 370.335938 79.425781 361.8125 79.425781 361.8125 L 89.941406 360.800781 " fill-opacity="1" fill-rule="evenodd"/><path fill="#19344f" d="M 79.320312 374.058594 C 79.871094 374.238281 81.664062 377.296875 85.207031 376.792969 C 88.355469 376.351562 89.0625 373.347656 89.796875 373.234375 C 91.476562 372.976562 93.816406 375.546875 99.019531 378.121094 C 101.652344 379.429688 108.773438 379.941406 108.289062 383.121094 C 107.925781 385.558594 83.710938 385.925781 78.632812 385.0625 C 76.28125 384.660156 77.234375 379.988281 77.828125 377.933594 C 78.332031 376.179688 78.460938 373.777344 79.320312 374.058594 " fill-opacity="1" fill-rule="evenodd"/><path fill="#fdb58e" d="M 123.242188 346.316406 C 123.242188 346.316406 118.363281 358.636719 117.296875 362.003906 C 117 362.941406 116.492188 364.589844 116.40625 364.8125 C 115.757812 366.410156 112.421875 368.546875 112.421875 368.546875 L 105.757812 362.765625 L 107.472656 359.398438 C 107.472656 359.398438 109.328125 356.746094 109.933594 354.5625 C 110.691406 351.835938 113.082031 343.210938 113.082031 343.210938 L 123.242188 346.316406 " fill-opacity="1" fill-rule="evenodd"/><path fill="#19344f" d="M 108.558594 357.898438 C 108.816406 358.40625 107.878906 361.800781 110.746094 363.894531 C 113.300781 365.75 115.96875 364.105469 116.574219 364.535156 C 117.953125 365.511719 117.75 368.945312 119.570312 374.351562 C 120.496094 377.09375 125.167969 382.371094 122.527344 384.285156 C 120.503906 385.757812 103.089844 369.328125 100.117188 365.214844 C 98.746094 363.3125 102.796875 360.664062 104.703125 359.609375 C 106.324219 358.714844 108.152344 357.105469 108.558594 357.898438 " fill-opacity="1" fill-rule="evenodd"/><path fill="#19344f" d="M 79.773438 227.945312 C 79.773438 227.945312 67.890625 232.285156 68.351562 241.425781 C 68.8125 250.566406 74.398438 307.890625 74.398438 307.890625 L 79.023438 366.964844 L 90.175781 366.496094 L 92.75 306.738281 L 99.085938 240.238281 C 99.085938 240.238281 96.167969 225.117188 79.773438 227.945312 " fill-opacity="1" fill-rule="evenodd"/><path fill="#19344f" d="M 96.867188 222.859375 C 96.867188 222.859375 87.246094 231.71875 90.824219 238.714844 C 94.40625 245.703125 121.667969 299.199219 121.667969 299.199219 L 110.058594 353.011719 L 119.574219 356.558594 L 139.976562 304.199219 C 139.976562 304.199219 141.535156 298.039062 138.867188 291.15625 C 136.199219 284.277344 118.558594 226.808594 118.558594 226.808594 C 118.558594 226.808594 111.054688 215.941406 96.867188 222.859375 " fill-opacity="1" fill-rule="evenodd"/><path fill="#fdb58e" d="M 85.097656 161.675781 L 73.34375 158.019531 C 73.34375 158.019531 78.09375 155.824219 79.074219 153.71875 C 80.335938 151.019531 79.414062 139.757812 79.414062 139.757812 L 90 139.703125 C 90 139.703125 91.015625 149.769531 92.574219 152.648438 C 93.855469 155.011719 99.351562 156.984375 99.351562 156.984375 L 85.097656 161.675781 " fill-opacity="1" fill-rule="evenodd"/><path fill="#fdb58e" d="M 93.507812 126.808594 C 94.496094 128.738281 95.480469 132.261719 95.671875 134.9375 C 95.859375 137.59375 95.269531 141.101562 94.644531 142.871094 C 93.273438 146.78125 91.140625 151.28125 83.457031 147.816406 C 82.273438 147.277344 78.929688 143.222656 78.320312 142.46875 C 75.835938 139.378906 75.9375 134.527344 76.34375 130.765625 C 76.679688 127.664062 76.910156 124.625 79.796875 122.875 C 82.25 121.386719 86.507812 121.835938 89.742188 123.339844 C 90.570312 123.730469 92.730469 125.285156 93.507812 126.808594 " fill-opacity="1" fill-rule="evenodd"/><path fill="#19344f" d="M 90.34375 119.710938 C 96.535156 118.277344 100.511719 125.589844 95.753906 129.71875 C 94.492188 130.8125 93.105469 131.867188 91.507812 132.367188 C 90.554688 132.667969 89.375 132.683594 88.636719 133.476562 C 87.367188 134.835938 87.695312 137.546875 85.648438 138.476562 C 84.191406 139.140625 81.902344 138.265625 80.652344 139.605469 C 77.71875 142.730469 82.460938 144.671875 80.695312 147.984375 C 78.875 151.40625 76.792969 141.597656 74.09375 139.316406 C 69.820312 135.714844 68.871094 129.734375 73.972656 125.964844 C 76.621094 124.007812 75.292969 120.003906 80.347656 118.585938 C 82.570312 117.957031 87.507812 120.371094 90.34375 119.710938 " fill-opacity="1" fill-rule="evenodd"/><path fill="#ee4e2a" d="M 95.136719 154.703125 C 95.136719 154.703125 90.933594 158.339844 85.640625 158.503906 C 80.933594 158.644531 75.179688 156.867188 75.179688 156.867188 C 75.179688 156.867188 60.601562 163.15625 57.25 166.941406 C 55.886719 168.480469 65.34375 186.324219 66.308594 194.800781 C 67.496094 205.234375 65.933594 213.988281 66.996094 224.34375 C 67.542969 229.679688 63.304688 239.265625 69.246094 240.921875 C 76.75 243.015625 84.90625 240.800781 94.847656 239.46875 C 100.4375 238.714844 120.730469 235.816406 122.570312 230.425781 C 123.527344 227.625 118.054688 218.417969 117.386719 214.519531 C 114.984375 200.492188 116.988281 181.5625 115.863281 172.773438 C 115.601562 170.699219 117.878906 164.152344 114.800781 159.898438 C 113.808594 158.515625 110.550781 157.523438 108.695312 156.808594 C 103.800781 154.929688 95.136719 154.703125 95.136719 154.703125 " fill-opacity="1" fill-rule="evenodd"/><path fill="#19344f" d="M 95.613281 155.175781 C 95.613281 155.175781 88.625 163.808594 74.757812 157.691406 C 74.351562 157.511719 74.167969 157.039062 74.351562 156.636719 C 74.535156 156.234375 75.019531 156.054688 75.433594 156.234375 C 87.984375 161.777344 94.335938 154.171875 94.335938 154.171875 C 94.617188 153.832031 95.132812 153.773438 95.488281 154.050781 C 95.839844 154.324219 95.894531 154.828125 95.613281 155.175781 " fill-opacity="1" fill-rule="evenodd"/><path fill="#fdb58e" d="M 69.085938 245.148438 L 73.285156 252.515625 L 76.058594 260.382812 L 81.136719 267.597656 C 81.136719 267.597656 88.832031 272.117188 90.257812 272.320312 C 91.457031 272.492188 89.71875 268.816406 89.71875 268.816406 L 87.808594 266.570312 L 85.203125 263.800781 L 84.058594 259.082031 C 84.058594 259.082031 89.113281 261.773438 89.25 261.070312 C 89.390625 260.359375 84.890625 254.832031 84.890625 254.832031 L 79.367188 250.511719 L 75.738281 242.757812 L 69.085938 245.148438 " fill-opacity="1" fill-rule="evenodd"/><path fill="#fdb58e" d="M 145.585938 143.699219 L 145.761719 134.820312 C 145.761719 134.820312 146.765625 128.101562 147.515625 125.320312 C 148.179688 122.84375 150.257812 118.121094 150.257812 118.121094 C 150.257812 118.121094 158.859375 112.71875 158.324219 113.65625 C 156.023438 117.6875 153.601562 124.449219 153.601562 124.449219 L 153 126.828125 L 154.464844 126.230469 C 154.464844 126.230469 156.355469 124.078125 156.503906 124.523438 C 156.65625 124.972656 155.371094 128.90625 155.371094 128.90625 L 152.402344 134.449219 L 153.015625 143.992188 L 145.585938 143.699219 " fill-opacity="1" fill-rule="evenodd"/><path fill="#ee4e2a" d="M 61.164062 165.238281 C 61.164062 165.238281 53.300781 167.226562 53.214844 175.21875 C 53.132812 183.210938 52.210938 209.8125 52.210938 209.8125 C 52.210938 209.8125 52.039062 216.949219 54.390625 220.925781 C 56.746094 224.902344 71.507812 249.867188 71.507812 249.867188 L 77.648438 246.609375 L 64.582031 213.542969 L 71.316406 175.273438 C 71.316406 175.273438 72.53125 165.949219 61.164062 165.238281 " fill-opacity="1" fill-rule="evenodd"/><path fill="#ee4e2a" d="M 100.15625 164.671875 C 100.15625 164.671875 98.976562 173.863281 106.09375 175.472656 C 113.207031 177.089844 150.445312 182.085938 150.445312 182.085938 C 150.445312 182.085938 155.867188 181.078125 155.636719 175.535156 C 155.402344 169.988281 152.703125 137.269531 152.703125 137.269531 L 145.382812 137.722656 L 143.949219 168.304688 L 109.875 157.65625 C 109.875 157.65625 101.796875 158.621094 100.15625 164.671875 " fill-opacity="1" fill-rule="evenodd"/></svg>